<svg xmlns="http://www.w3.org/2000/svg" width="2533.333" height="2533.333" preserveAspectRatio="xMidYMid meet" version="1.0" viewBox="0 0 1900 1900"><metadata>Created by potrace 1.14, written by Peter Selinger 2001-2017</metadata><g fill="#000" stroke="none"><path d="M10665 18594 c-16 -2 -73 -9 -125 -15 -172 -19 -351 -59 -615 -136 -143 -42 -264 -79 -269 -83 -4 -5 15 -86 43 -182 28 -95 51 -178 51 -184 0 -5 -165 -59 -367 -118 -203 -60 -371 -111 -374 -115 -4 -3 43 -172 103 -375 60 -203 106 -372 101 -376 -4 -4 -172 -56 -373 -115 -201 -59 -366 -109 -368 -110 -1 -1 97 -341 219 -754 122 -413 220 -753 218 -755 -5 -4 -900 -268 -2499 -738 -696 -204 -1266 -372 -1266 -372 -1 -1 5 -32 13 -71 18 -86 12 -271 -12 -360 -40 -148 -134 -292 -260 -398 -65 -55 -232 -147 -266 -147 -10 0 -44 101 -124 373 -60 204 -110 373 -111 375 -1 2 -170 -47 -375 -107 -205 -61 -376 -108 -379 -104 -4 5 -26 76 -50 158 -24 83 -48 164 -54 181 l-11 31 -270 -81 c-379 -116 -566 -193 -811 -337 -311 -182 -631 -459 -857 -739 -362 -449 -605 -1024 -672 -1585 -35 -296 -29 -593 16 -875 20 -130 74 -365 88 -388 6 -10 45 -2 182 38 96 28 179 53 186 55 7 2 -21 -62 -62 -143 -351 -701 -526 -1417 -576 -2352 -13 -243 -7 -765 11 -1025 65 -929 242 -1932 540 -3059 191 -724 306 -1091 446 -1418 430 -1008 1071 -1663 1799 -1836 100 -24 129 -27 315 -27 224 0 287 9 470 67 185 59 317 142 470 297 123 123 210 247 296 417 l61 121 49 -19 c98 -37 322 -98 456 -122 281 -52 590 -58 880 -16 175 25 222 37 693 175 215 64 955 282 1645 485 690 204 1976 582 2858 842 887 261 1602 477 1602 483 0 6 -148 514 -330 1130 -181 615 -329 1120 -327 1121 1 1 265 79 587 174 574 169 775 235 936 310 92 42 271 144 356 201 31 22 59 39 61 39 3 0 35 -55 73 -122 273 -492 545 -868 844 -1169 417 -419 833 -630 1239 -629 136 0 221 13 351 51 657 194 1089 817 1196 1724 19 167 22 558 5 745 -45 484 -124 832 -356 1568 -571 1814 -1215 3188 -1951 4169 -509 678 -1062 1181 -1693 1543 -51 30 -97 63 -102 74 -13 30 -659 2226 -659 2240 0 7 80 35 186 66 184 54 185 54 179 80 -15 61 -112 306 -168 425 -357 762 -997 1340 -1803 1629 -207 74 -488 136 -726 161 -131 13 -476 19 -563 9z" transform="translate(0.000000,1900.000000) scale(0.100000,-0.100000)"/></g></svg>