<svg xmlns="http://www.w3.org/2000/svg" id="Ebene_1" data-name="Ebene 1" viewBox="0 0 378.82 50"><defs><style>.cls-1{fill:#eb5758}.cls-2{fill:#43a8df}.cls-3{fill:#767676}.cls-4{fill:#434342}.cls-5{fill:#e0e0e0}.cls-6{fill:#ececec}</style></defs><g id="Logo"><path d="M30,3.37l.28-.88s9.42-1.08,9.62,4.8l-.49.59" class="cls-1"/><path d="M18.26,45.89,17.36,47S7.84,44.13,8.23,24.34l.2-2.74Z" class="cls-2"/><polyline points="15.88 15.72 17.98 15.05 25.93 45.47 24.31 45.89" class="cls-2"/><polygon points="29.31 5.85 28.66 13.11 36.65 35.74 37.17 35.74 38.02 35.36 29.31 5.85" class="cls-1"/><path d="M42.38,33.81s1.91,3.66,4,4.64a3.85,3.85,0,0,0,3.82-.39A6.28,6.28,0,0,0,52,33.16a38.08,38.08,0,0,0-5.17-14.45s-2.66-4.08-5.46-5.25" class="cls-3"/><path d="M16,13.51l9.41,32-3.24,1A7.14,7.14,0,0,1,18,46.24a9.57,9.57,0,0,1-4.11-3.73L8.28,23.11S5.83,15.28,16,13.51Z" class="cls-2"/><circle cx="13.28" cy="21.64" r="2.11" class="cls-4"/><ellipse cx="13.77" cy="31.06" class="cls-4" rx="1.03" ry="1.02"/><ellipse cx="15.16" cy="28.5" class="cls-4" rx="1.03" ry="1.02"/><ellipse cx="17.71" cy="29.87" class="cls-4" rx="1.03" ry="1.02"/><ellipse cx="16.33" cy="32.42" class="cls-4" rx="1.03" ry="1.02"/><path d="M14.07,14c-7.93,2.37-5.78,9.19-5.78,9.19l-.94.3s-2.45-8,6.42-10.35" class="cls-4"/><path d="M17.93,46.29a4.91,4.91,0,0,1-3.43,2.25c-2.18.09-3.72-2.18-4.7-3.63-2.07-3-2.43-6.16-2.84-10-.43-4-.54-5.8-.2-7.45A16.2,16.2,0,0,1,7.94,24l.35-.79,5.53,18.72A7.59,7.59,0,0,0,18,46.24" class="cls-3"/><path d="M16.59,15.45A2.06,2.06,0,0,0,18,12.92L27.73,10a1.94,1.94,0,0,0,2.45,1.38l8.91,30.17-13.61,4" class="cls-3"/><path d="M26.55,6.12,27.73,10a1.94,1.94,0,0,0,2.45,1.38L28.51,5.63" class="cls-4"/><path d="M37.37,35.74a12.52,12.52,0,0,0,5-1.93,6.72,6.72,0,0,0,2.79-7.51L41.4,13.46,39.68,7.59a7.06,7.06,0,0,0-8.62-4.9l-3.13,1" class="cls-1"/><circle cx="37.67" cy="18.71" r="2.11" class="cls-4"/><circle cx="35.62" cy="11.95" r="1.03" class="cls-4"/><circle cx="36.99" cy="9.4" r="1.03" class="cls-4"/><circle cx="33.17" cy="10.57" r="1.03" class="cls-4"/><circle cx="34.54" cy="8.03" r="1.03" class="cls-4"/><circle cx="37.77" cy="26.15" r="2.01" class="cls-3"/><circle cx="37.77" cy="26.15" r="1.03" class="cls-4"/><path d="M29.59,2.1l.27,1,1.2-.37s6.57-1.57,8.62,4.9l1-.3S38.31-.84,29.59,2.1" class="cls-4"/><path d="M43,33.33s1.28,2.37,2.94,2,.8-3.28-.73-8.74A7.12,7.12,0,0,1,43,33.33Z" class="cls-4"/><path d="M25.3,23.4l1.76,5.78s-2.35,1.27-3.42-.79L23,26a1.9,1.9,0,0,1,1.17-2.25" class="cls-5"/><path d="M27.25,22.83l1.66,5.81s2.67-.22,2.45-2.53l-.7-2.34a1.9,1.9,0,0,0-2.22-1.25" class="cls-4"/></g><path d="M63.55,32.07V18.41h9.08v2.3H66.31V24h5.12v2.26H66.31v3.48h6.32v2.3Z" class="cls-6"/><path d="M74.89,32.07l3.48-13.66h4.82l3.46,13.66H83.89l-.76-2.76H78.35l-.72,2.76Zm3.9-5h3.94l-1.54-6.44h-.84Z" class="cls-6"/><path d="M91,32.07V20.75H87.31V18.41h10v2.34H93.75V32.07Z" class="cls-6"/><path d="M98.21,34.37l.72-5.12h2.92l-1.44,5.12Z" class="cls-6"/><path d="M115.39,32.29c-.5,0-1.06,0-1.66-.09s-1.18-.13-1.75-.22l-1.45-.23.18-2.18,1.44.17,1.63.15q.81.06,1.41.06a2.5,2.5,0,0,0,1.66-.45,1.76,1.76,0,0,0,.52-1.41,1.22,1.22,0,0,0-1-1.33,10.2,10.2,0,0,0-1.5-.37,12.23,12.23,0,0,1-2.59-.74,3,3,0,0,1-1.44-1.24,4.36,4.36,0,0,1-.45-2.14,4.51,4.51,0,0,1,.58-2.45,3.18,3.18,0,0,1,1.66-1.27,7.76,7.76,0,0,1,2.54-.38c.44,0,1,0,1.51.07s1.13.1,1.68.17,1,.14,1.41.22l-.12,2.2-1.39-.15-1.56-.13c-.51,0-.95-.06-1.31-.06a3.08,3.08,0,0,0-1.68.36,1.3,1.3,0,0,0-.54,1.16,1.51,1.51,0,0,0,.24.92,1.67,1.67,0,0,0,.81.52c.38.13.91.27,1.57.42a15.47,15.47,0,0,1,2,.56,4.42,4.42,0,0,1,1.34.72,2.45,2.45,0,0,1,.75,1.08,4.9,4.9,0,0,1,.24,1.66,5,5,0,0,1-.57,2.57,3.23,3.23,0,0,1-1.64,1.4A6.81,6.81,0,0,1,115.39,32.29Z" class="cls-6"/><path d="M123.43,32.07V18.41h2.76V29.73h5.4v2.34Z" class="cls-6"/><path d="M134.41,32.07V18.41h9.08v2.3h-6.32V24h5.12v2.26h-5.12v3.48h6.32v2.3Z" class="cls-6"/><path d="M146.77,32.07V18.41h9.08v2.3h-6.32V24h5.12v2.26h-5.12v3.48h6.32v2.3Z" class="cls-6"/><path d="M159.13,32.07V18.41h5.14a7.34,7.34,0,0,1,2.82.47,3.33,3.33,0,0,1,1.69,1.51,5.78,5.78,0,0,1,.57,2.78,6.11,6.11,0,0,1-.57,2.83,3.46,3.46,0,0,1-1.69,1.6,6.77,6.77,0,0,1-2.82.51h-2.38v4Zm2.76-6.22h2.3a2.17,2.17,0,0,0,1.8-.67,3.13,3.13,0,0,0,.54-2,2.81,2.81,0,0,0-.54-1.94,2.36,2.36,0,0,0-1.8-.58h-2.3Z" class="cls-6"/><path d="M170.27,34.37l.72-5.12h2.92l-1.44,5.12Z" class="cls-6"/><path d="M183,32.07V18.41h3.6L191,28h.36v-9.6h2.76V32.07h-3.56l-4.42-9.76h-.36v9.76Z" class="cls-6"/><path d="M198,32.07V18.41h2.76V32.07Z" class="cls-6"/><path d="M204.63,32.07V18.41h3.6l4.38,9.6H213v-9.6h2.76V32.07h-3.56l-4.42-9.76h-.36v9.76Z" class="cls-6"/><path d="M222.23,32.07V20.75h-3.68V18.41h10v2.34H225V32.07Z" class="cls-6"/><path d="M231.39,32.07V18.41h9.08v2.3h-6.32V24h5.12v2.26h-5.12v3.48h6.32v2.3Z" class="cls-6"/><path d="M243.75,32.07V18.41h3.6l4.38,9.6h.36v-9.6h2.76V32.07h-3.56l-4.42-9.76h-.36v9.76Z" class="cls-6"/><path d="M258.71,32.07V18.41h5.22a7,7,0,0,1,2.69.45,4.16,4.16,0,0,1,1.75,1.31,5.38,5.38,0,0,1,.95,2.08,11.69,11.69,0,0,1,.29,2.78,13.9,13.9,0,0,1-.27,2.86,6.15,6.15,0,0,1-.91,2.22,4.2,4.2,0,0,1-1.72,1.45,6.31,6.31,0,0,1-2.7.51Zm2.76-2.32h2.38a2.83,2.83,0,0,0,1.52-.36,2.3,2.3,0,0,0,.89-1,4.71,4.71,0,0,0,.42-1.5,15.09,15.09,0,0,0,.11-1.85,11.74,11.74,0,0,0-.12-1.75,4,4,0,0,0-.43-1.36,2.13,2.13,0,0,0-.88-.88,3.11,3.11,0,0,0-1.51-.31h-2.38Z" class="cls-6"/><path d="M278.39,32.29a6.68,6.68,0,0,1-3.45-.77,4.31,4.31,0,0,1-1.82-2.33,12,12,0,0,1-.55-3.9,12.3,12.3,0,0,1,.55-3.94A4.47,4.47,0,0,1,274.94,19a7.84,7.84,0,0,1,6.9,0,4.37,4.37,0,0,1,1.82,2.38,12,12,0,0,1,.55,3.94,11.9,11.9,0,0,1-.55,3.94,4.14,4.14,0,0,1-1.82,2.31A6.74,6.74,0,0,1,278.39,32.29Zm0-2.32a3,3,0,0,0,1.91-.51,2.5,2.5,0,0,0,.87-1.56,12.77,12.77,0,0,0,.22-2.61,12.29,12.29,0,0,0-.23-2.63,2.46,2.46,0,0,0-2.77-2.17,2.86,2.86,0,0,0-1.89.55,2.91,2.91,0,0,0-.89,1.62,12.22,12.22,0,0,0-.24,2.63,12.38,12.38,0,0,0,.23,2.58,2.75,2.75,0,0,0,.88,1.57A3,3,0,0,0,278.39,30Z" class="cls-6"/><path d="M286.75,34.37l.72-5.12h2.92L289,34.37Z" class="cls-6"/><path d="M299.51,32.07V18.41h5.34a7.8,7.8,0,0,1,2.75.42,3.08,3.08,0,0,1,1.66,1.4,5.4,5.4,0,0,1,.55,2.66,5.33,5.33,0,0,1-.53,2.49,3.25,3.25,0,0,1-1.61,1.49l2.14,5.2h-2.9l-1.8-4.58h-2.84v4.58Zm2.76-6.84h2.64a2.27,2.27,0,0,0,1.22-.29,1.58,1.58,0,0,0,.66-.82,3.49,3.49,0,0,0,.2-1.21,2.37,2.37,0,0,0-.52-1.68,2.14,2.14,0,0,0-1.62-.56h-2.58Z" class="cls-6"/><path d="M313.17,32.07V18.41h9.08v2.3h-6.32V24h5.12v2.26h-5.12v3.48h6.32v2.3Z" class="cls-6"/><path d="M325.53,32.07V18.41h5.14a7.41,7.41,0,0,1,2.82.47,3.33,3.33,0,0,1,1.69,1.51,5.78,5.78,0,0,1,.57,2.78,6.11,6.11,0,0,1-.57,2.83,3.46,3.46,0,0,1-1.69,1.6,6.84,6.84,0,0,1-2.82.51h-2.38v4Zm2.76-6.22h2.3a2.17,2.17,0,0,0,1.8-.67,3.13,3.13,0,0,0,.54-2,2.81,2.81,0,0,0-.54-1.94,2.36,2.36,0,0,0-1.8-.58h-2.3Z" class="cls-6"/><path d="M338.87,32.07V18.41H348v2.3h-6.32V24h5.12v2.26h-5.12v3.48H348v2.3Z" class="cls-6"/><path d="M350.21,32.07l3.48-13.66h4.82L362,32.07h-2.76l-.76-2.76h-4.78L353,32.07Zm3.9-5h3.94l-1.54-6.44h-.84Z" class="cls-6"/><path d="M366.31,32.07V20.75h-3.68V18.41h10v2.34h-3.56V32.07Z" class="cls-6"/></svg>