<svg xmlns="http://www.w3.org/2000/svg" id="Ebene_1" data-name="Ebene 1" viewBox="0 0 464.05 480.56"><defs><style>.cls-1{fill:#f45555}.cls-2,.cls-4{fill:#00b0ff}.cls-3{fill:#757575}.cls-4{stroke:#000;stroke-miterlimit:10;stroke-width:.75px}.cls-5{fill:#424242}.cls-6{fill:#e0e0e0}</style></defs><path d="M258,30l2.87-9S357,10,359,70l-5,6" class="cls-1" transform="translate(-18.95 -10.46)"/><path d="M138.32,464l-9.13,11.31S32,446,36,244l2-28Z" class="cls-2" transform="translate(-18.95 -10.46)"/><polyline points="95.06 145.54 116.56 138.75 197.66 449.18 181.18 453.48" class="cls-2"/><polygon points="232.21 44.79 225.59 118.92 307.06 349.94 312.39 349.94 321.06 345.98 232.21 44.79" class="cls-1"/><path d="M384.55,340.7S404,378,425,388s39-4,39-4,19-15,19-50c0,0-6.69-70.93-52.79-147.5,0,0-27.07-41.63-55.64-53.57" class="cls-3" transform="translate(-18.95 -10.46)"/><path d="M115.5,133.5l96,327-33,10s-23,6-43-3-34-25-42-38l-57-198S11.5,151.5,115.5,133.5Z" class="cls-2" transform="translate(-18.95 -10.46)"/><path d="M532.5,452.5" class="cls-4" transform="translate(-18.95 -10.46)"/><circle cx="68.55" cy="206.04" r="21.5" class="cls-5"/><ellipse cx="73.55" cy="302.13" class="cls-5" rx="10.5" ry="10.4"/><ellipse cx="87.75" cy="276.03" class="cls-5" rx="10.5" ry="10.4"/><ellipse cx="113.75" cy="290.03" class="cls-5" rx="10.5" ry="10.4"/><ellipse cx="99.75" cy="316.03" class="cls-5" rx="10.5" ry="10.4"/><path d="M95.54,138.13C14.62,162.4,36.64,232,36.64,232L27,235S2,153.77,92.5,129.38" class="cls-5" transform="translate(-18.95 -10.46)"/><path d="M135,468c-3.91,5.57-16.65,22.23-35,23-22.3.94-38-22.22-48-37-21.1-31.15-24.84-62.89-29-102-4.37-41.07-5.47-59.18-2-76a162.24,162.24,0,0,1,12-36l3.64-8L93,423s9,30,42.5,44.5" class="cls-3" transform="translate(-18.95 -10.46)"/><path d="M121.31,153.29s17.69-4.44,14.19-25.86L235,98s4,18,25,14l91,308L212,461" class="cls-3" transform="translate(-18.95 -10.46)"/><path d="M223,58l12,40s4,18,25,14L243,53" class="cls-5" transform="translate(-18.95 -10.46)"/><path d="M333.39,360.41s27.93-3.55,51.16-19.71c20.19-14.05,36.82-37.64,28.45-76.7L374.57,132.93,357,73S340,9,269,23L237,33" class="cls-1" transform="translate(-18.95 -10.46)"/><circle cx="317.55" cy="176.04" r="21.5" class="cls-5"/><circle cx="296.55" cy="107.04" r="10.5" class="cls-5"/><circle cx="310.55" cy="81.04" r="10.5" class="cls-5"/><circle cx="271.55" cy="93.04" r="10.5" class="cls-5"/><circle cx="285.55" cy="67.04" r="10.5" class="cls-5"/><circle cx="318.55" cy="252.04" r="20.5" class="cls-3"/><circle cx="318.55" cy="252.04" r="10.5" class="cls-5"/><path d="M254,17l2.79,9.81L269,23s67-16,88,50l10-3S343-13,254,17" class="cls-5" transform="translate(-18.95 -10.46)"/><path d="M391,335.78S404,360,421,356s8.09-33.55-7.45-89.27C413.55,266.73,423.91,305.57,391,335.78Z" class="cls-5" transform="translate(-18.95 -10.46)"/><path d="M210.21,234.38l18,59s-24,13-35-8l-7-24s-4-18,12-23" class="cls-6" transform="translate(-18.95 -10.46)"/><path d="M230.08,228.58l17,59.29s27.21-2.17,25-25.78l-7.2-23.94s-6.45-17.27-22.59-12.75" class="cls-5" transform="translate(-18.95 -10.46)"/></svg>